<svg width="38" height="36" viewBox="0 0 38 36" fill="none" xmlns="http://www.w3.org/2000/svg">
<path d="M5 34.6666H33C33.9283 34.6666 34.8185 34.3154 35.4749 33.6903C36.1313 33.0652 36.5 32.2173 36.5 31.3333V4.66659C36.5 3.78253 36.1313 2.93468 35.4749 2.30956C34.8185 1.68444 33.9283 1.33325 33 1.33325H12C11.0717 1.33325 10.1815 1.68444 9.52513 2.30956C8.86875 2.93468 8.5 3.78253 8.5 4.66659V31.3333C8.5 32.2173 8.13125 33.0652 7.47487 33.6903C6.8185 34.3154 5.92826 34.6666 5 34.6666ZM5 34.6666C4.07174 34.6666 3.1815 34.3154 2.52513 33.6903C1.86875 33.0652 1.5 32.2173 1.5 31.3333V16.3333C1.5 14.4999 3.075 12.9999 5 12.9999H8.5" stroke="black" stroke-width="2" stroke-linecap="round" stroke-linejoin="round"/>
</svg>
