<svg width="48" height="48" viewBox="0 0 48 48" fill="none" xmlns="http://www.w3.org/2000/svg">
<path d="M16 44C17.1046 44 18 43.1046 18 42C18 40.8954 17.1046 40 16 40C14.8954 40 14 40.8954 14 42C14 43.1046 14.8954 44 16 44Z" stroke="black" stroke-width="2" stroke-linecap="round" stroke-linejoin="round"/>
<path d="M38 44C39.1046 44 40 43.1046 40 42C40 40.8954 39.1046 40 38 40C36.8954 40 36 40.8954 36 42C36 43.1046 36.8954 44 38 44Z" stroke="black" stroke-width="2" stroke-linecap="round" stroke-linejoin="round"/>
<path d="M4.09961 4.1001H8.09961L13.4196 28.9401C13.6148 29.8498 14.121 30.663 14.851 31.2398C15.5811 31.8166 16.4894 32.1208 17.4196 32.1001H36.9796C37.89 32.0986 38.7726 31.7867 39.4817 31.2158C40.1907 30.6449 40.6839 29.8492 40.8796 28.9601L44.1796 14.1001H10.2396" stroke="black" stroke-width="2" stroke-linecap="round" stroke-linejoin="round"/>
</svg>
